<?xml version="1.0" encoding="utf-8"?>
<svg version="1.1" xmlns="http://www.w3.org/2000/svg" xmlns:xlink="http://www.w3.org/1999/xlink" x="0px" y="0px" xml:space="preserve">
	 <def>
	 		<symbol id="logo" viewBox="0 0 157 160.5">
	 			<path d="M156.1,90.6c-3.2,30-26.4,51.8-53.8,51.8l-84.3,0V18h79.3c11.1,0,21.6,4.3,29.4,12.2
	 				c7.9,7.9,12.2,18.3,12.2,29.4c0,11.1-4.3,21.6-12.2,29.4c-7.9,7.9-18.3,12.2-29.4,12.2H59.2v-42h38.1c9.5,0,18.5,3.1,25.8,8.9
	 				c-0.8-11.2-6.5-25.1-29.9-27h-52v78h56.1c15.9,0,30.9-6.2,42.2-17.5C150.8,90.5,157,75.6,157,59.6c0-15.9-6.2-30.9-17.5-42.2
	 				C128.2,6.2,113.3,0,97.3,0H0v160.5h97.3c15.9,0,30.9-6.2,42.2-17.5c11.3-11.3,17.5-26.2,17.5-42.2C157,97.4,156.7,93.9,156.1,90.6
	 				C156.1,90.6,156.1,90.6,156.1,90.6z"/>
	 		</symbol>
	 		<clipPath id="svgPath" clipPathUnits="objectBoundingBox">
	 		<path fill="#3A4750" d="M156.1,90.6c-3.2,30-26.4,51.8-53.8,51.8l-84.3,0V18h79.3c11.1,0,21.6,4.3,29.4,12.2
	 		  c7.9,7.9,12.2,18.3,12.2,29.4c0,11.1-4.3,21.6-12.2,29.4c-7.9,7.9-18.3,12.2-29.4,12.2H59.2v-42h38.1c9.5,0,18.5,3.1,25.8,8.9
	 		  c-0.8-11.2-6.5-25.1-29.9-27h-52v78h56.1c15.9,0,30.9-6.2,42.2-17.5C150.8,90.5,157,75.6,157,59.6c0-15.9-6.2-30.9-17.5-42.2
	 		  C128.2,6.2,113.3,0,97.3,0H0v160.5h97.3c15.9,0,30.9-6.2,42.2-17.5c11.3-11.3,17.5-26.2,17.5-42.2C157,97.4,156.7,93.9,156.1,90.6
	 		  C156.1,90.6,156.1,90.6,156.1,90.6z"/>
	 		</clipPath>
	 		<symbol id="twitter" viewBox="0 0 512 512"> 
	 			<path style="fill:#3A4750;" d="M256,0C114.6,0,0,114.6,0,256s114.6,256,256,256s256-114.6,256-256S397.4,0,256,0z M403.1,180.5
	 				c0.1,3.3,0.2,6.5,0.2,9.8c0,100.3-76.4,216-216,216c-42.9,0-82.8-12.6-116.4-34.1c5.9,0.7,12,1.1,18.1,1.1
	 				c35.6,0,68.3-12.1,94.3-32.5c-33.2-0.6-61.3-22.6-70.9-52.7c4.6,0.9,9.4,1.4,14.3,1.4c6.9,0,13.6-0.9,20-2.7
	 				c-34.7-7-60.9-37.7-60.9-74.4c0-0.3,0-0.6,0-1c10.2,5.7,21.9,9.1,34.4,9.5c-20.4-13.6-33.8-36.8-33.8-63.2c0-13.9,3.7-27,10.3-38.2
	 				c37.4,45.9,93.4,76.1,156.5,79.3c-1.3-5.6-2-11.4-2-17.3c0-41.9,34-75.9,75.9-75.9c21.8,0,41.6,9.2,55.4,24
	 				c17.3-3.4,33.5-9.7,48.2-18.4c-5.7,17.7-17.7,32.6-33.4,42c15.4-1.8,30-5.9,43.6-12C430.8,156.5,418,169.8,403.1,180.5z"/>
	 		</symbol>
	 		<symbol id="heart" viewBox="0 0 16 14.7">
	 			<path d="M11.4,0C10,0,8.8,0.6,8,1.5C7.2,0.6,6,0,4.6,0C2.1,0,0,2.2,0,4.8
	 			  c0,0.7,0.1,1.4,0.3,2.1c0,0,0.2,0.6,0.4,0.9C2.6,12,8,14.7,8,14.7s5.4-2.7,7.3-6.9c0,0,0.3-0.6,0.4-0.9C15.9,6.2,16,5.5,16,4.8
	 			  C16,2.2,13.9,0,11.4,0z"/>
	 		</symbol>
	 		<symbol id="github" viewBox="0 0 512 512">
	 			<path style="fill:#3A4750;" d="M477.7,127.3c-22.9-39.2-53.9-70.2-93.2-93C345.3,11.4,302.4,0,256,0
	 					c-46.4,0-89.3,11.4-128.5,34.3c-39.2,22.9-70.3,53.9-93.2,93C11.4,166.4,0,209.2,0,255.6c0,55.7,16.3,105.8,48.8,150.2
	 					c32.6,44.5,74.6,75.3,126.2,92.3c6,1.1,10.4,0.3,13.3-2.3c2.9-2.7,4.3-6,4.3-10c0-0.7-0.1-6.7-0.2-18c-0.1-11.3-0.2-21.2-0.2-29.6
	 					l-7.7,1.3c-4.9,0.9-11.1,1.3-18.5,1.2c-7.4-0.1-15.2-0.9-23.2-2.3c-8-1.4-15.4-4.8-22.3-10c-6.9-5.2-11.8-12-14.7-20.5l-3.3-7.7
	 					c-2.2-5.1-5.7-10.8-10.5-17c-4.8-6.2-9.6-10.4-14.5-12.6l-2.3-1.7c-1.6-1.1-3-2.4-4.3-4c-1.3-1.6-2.3-3.1-3-4.7
	 					c-0.7-1.6-0.1-2.8,1.7-3.8s5-1.5,9.7-1.5l6.7,1c4.4,0.9,9.9,3.5,16.5,8c6.6,4.4,11.9,10.2,16.2,17.3c5.1,9.1,11.3,16,18.5,20.8
	 					c7.2,4.8,14.5,7.2,21.8,7.2s13.7-0.6,19-1.7c5.3-1.1,10.3-2.8,15-5c2-14.9,7.4-26.3,16.3-34.3c-12.7-1.3-24.1-3.3-34.2-6
	 					c-10.1-2.7-20.6-7-31.3-13c-10.8-6-19.7-13.4-26.8-22.3c-7.1-8.9-12.9-20.5-17.5-34.9c-4.6-14.4-6.8-31.1-6.8-49.9
	 					c0-26.8,8.8-49.7,26.3-68.6c-8.2-20.2-7.4-42.8,2.3-67.9c6.4-2,16-0.5,28.7,4.5c12.7,5,21.9,9.3,27.8,12.8c5.9,3.5,10.6,6.5,14.2,9
	 					c20.7-5.8,42-8.6,64-8.6s43.3,2.9,64,8.6l12.7-8c8.7-5.3,18.9-10.2,30.7-14.6c11.8-4.4,20.8-5.7,27-3.7c10,25.1,10.9,47.7,2.7,67.9
	 					c17.6,18.9,26.3,41.7,26.3,68.6c0,18.9-2.3,35.5-6.8,50.1c-4.6,14.5-10.4,26.2-17.7,34.9c-7.2,8.8-16.2,16.1-27,22.1
	 					c-10.8,6-21.2,10.3-31.3,13c-10.1,2.7-21.5,4.7-34.2,6c11.6,10,17.3,25.7,17.3,47.2v70.2c0,4,1.4,7.3,4.2,10
	 					c2.8,2.7,7.2,3.4,13.2,2.3c51.6-17.1,93.6-47.9,126.2-92.3c32.5-44.5,48.8-94.6,48.8-150.2C512,209.2,500.5,166.4,477.7,127.3z"/>
	 		</symbol>
	 		<symbol id="codepen" viewBox="-273 365 512 512">
	 			<path style="fill:#3A4750;" d="M-17,365c141.4,0,256,114.6,256,256S124.4,877-17,877s-256-114.6-256-256S-158.4,365-17,365z
	 				 M142.8,569.9c-0.1-0.4-0.1-0.8-0.2-1.1c-0.1-0.2-0.2-0.4-0.2-0.7c-0.1-0.3-0.2-0.7-0.4-1c-0.1-0.2-0.2-0.4-0.3-0.7
	 				c-0.2-0.3-0.3-0.6-0.5-0.9c-0.1-0.2-0.2-0.4-0.4-0.6c-0.2-0.3-0.3-0.6-0.6-0.8c-0.2-0.2-0.3-0.4-0.5-0.6c-0.2-0.3-0.5-0.5-0.7-0.7
	 				c-0.2-0.2-0.3-0.4-0.5-0.5c-0.2-0.2-0.5-0.4-0.8-0.7c-0.2-0.2-0.4-0.3-0.6-0.5c-0.1-0.1-0.2-0.1-0.2-0.2L-9.4,463.3
	 				c-4.6-3.1-10.6-3.1-15.3,0l-146.3,97.5c-0.1,0.1-0.1,0.1-0.2,0.2c-0.2,0.1-0.4,0.3-0.6,0.5c-0.3,0.2-0.5,0.4-0.8,0.7
	 				c-0.2,0.2-0.4,0.4-0.5,0.5c-0.2,0.2-0.5,0.5-0.7,0.7c-0.2,0.2-0.3,0.4-0.5,0.6c-0.2,0.3-0.4,0.6-0.6,0.8c-0.1,0.2-0.3,0.4-0.4,0.6
	 				c-0.2,0.3-0.3,0.6-0.5,0.9c-0.1,0.2-0.2,0.4-0.3,0.7c-0.1,0.3-0.2,0.7-0.4,1c-0.1,0.2-0.1,0.4-0.2,0.7c-0.1,0.4-0.2,0.8-0.2,1.1
	 				c0,0.2-0.1,0.4-0.1,0.6c-0.1,0.6-0.1,1.2-0.1,1.8v97.5c0,0.6,0,1.2,0.1,1.8c0,0.2,0.1,0.4,0.1,0.6c0.1,0.4,0.1,0.8,0.2,1.1
	 				c0.1,0.2,0.1,0.5,0.2,0.7c0.1,0.3,0.2,0.7,0.4,1c0.1,0.2,0.2,0.4,0.3,0.7c0.1,0.3,0.3,0.7,0.5,0.9c0.1,0.2,0.3,0.4,0.4,0.7
	 				c0.2,0.2,0.4,0.6,0.6,0.8c0.1,0.2,0.3,0.4,0.5,0.6c0.2,0.2,0.4,0.5,0.7,0.7c0.2,0.2,0.4,0.3,0.5,0.5c0.2,0.2,0.5,0.4,0.8,0.7
	 				c0.2,0.2,0.4,0.3,0.6,0.5c0.1,0.1,0.1,0.1,0.2,0.2l146.3,97.5c2.3,1.5,5,2.2,7.6,2.2c2.7,0,5.3-0.8,7.6-2.3l146.3-97.5
	 				c0.1-0.1,0.2-0.1,0.2-0.2c0.2-0.2,0.4-0.3,0.6-0.5c0.3-0.2,0.5-0.4,0.8-0.7c0.2-0.2,0.4-0.4,0.5-0.6c0.2-0.2,0.5-0.5,0.7-0.7
	 				c0.2-0.2,0.3-0.4,0.5-0.6c0.2-0.3,0.4-0.6,0.6-0.8c0.1-0.2,0.3-0.4,0.4-0.7c0.2-0.3,0.3-0.6,0.5-0.9c0.1-0.2,0.2-0.4,0.3-0.7
	 				c0.1-0.3,0.2-0.7,0.4-1c0.1-0.2,0.1-0.4,0.2-0.7c0.1-0.4,0.2-0.8,0.2-1.1c0-0.2,0.1-0.4,0.1-0.6c0.1-0.5,0.1-1.1,0.1-1.7v-97.5
	 				c0-0.6,0-1.2-0.1-1.8C142.9,570.2,142.8,570.1,142.8,569.9z M-17,653.5L-65.6,621l48.6-32.5L31.7,621L-17,653.5z M-30.8,564.6
	 				l-59.6,39.9l-48.1-32.2l107.7-71.8C-30.8,500.4-30.8,564.6-30.8,564.6z M-115.1,621l-34.4,23v-46L-115.1,621z M-90.4,637.5
	 				l59.6,39.9v64.1l-107.7-71.8L-90.4,637.5z M-3.3,677.4l59.6-39.9l48.1,32.2L-3.3,741.5V677.4z M81.1,621l34.4-23v46L81.1,621z
	 				 M56.4,604.5l-59.6-39.9v-64.1l107.8,71.8L56.4,604.5z"/>
	 		</symbol>
	 </def>
</svg>

