<?xml version="1.0" encoding="utf-8"?>
<!-- Generator: Adobe Illustrator 19.0.0, SVG Export Plug-In . SVG Version: 6.00 Build 0)  -->
<svg version="1.1" xmlns="http://www.w3.org/2000/svg" xmlns:xlink="http://www.w3.org/1999/xlink" x="0px" y="0px"
	 viewBox="0 0 157 160.5" style="enable-background:new 0 0 157 160.5;" xml:space="preserve">
<path style="fill:#FFF;" d="M156.1,90.6c-3.2,30-26.4,51.8-53.8,51.8l-84.3,0V18h79.3c11.1,0,21.6,4.3,29.4,12.2
	c7.9,7.9,12.2,18.3,12.2,29.4c0,11.1-4.3,21.6-12.2,29.4c-7.9,7.9-18.3,12.2-29.4,12.2H59.2v-42h38.1c9.5,0,18.5,3.1,25.8,8.9
	c-0.8-11.2-6.5-25.1-29.9-27h-52v78h56.1c15.9,0,30.9-6.2,42.2-17.5C150.8,90.5,157,75.6,157,59.6c0-15.9-6.2-30.9-17.5-42.2
	C128.2,6.2,113.3,0,97.3,0H0v160.5h97.3c15.9,0,30.9-6.2,42.2-17.5c11.3-11.3,17.5-26.2,17.5-42.2C157,97.4,156.7,93.9,156.1,90.6
	C156.1,90.6,156.1,90.6,156.1,90.6z"/>
</svg>
